<?xml version="1.0" encoding="UTF-8" standalone="no"?>
<!DOCTYPE svg PUBLIC "-//W3C//DTD SVG 1.1//EN" "http://www.w3.org/Graphics/SVG/1.1/DTD/svg11.dtd">
<svg width="100%" height="100%" viewBox="0 0 1080 1080" version="1.1" xmlns="http://www.w3.org/2000/svg" xmlns:xlink="http://www.w3.org/1999/xlink" xml:space="preserve" xmlns:serif="http://www.serif.com/" style="fill-rule:evenodd;clip-rule:evenodd;stroke-linejoin:round;stroke-miterlimit:2;">
    <g transform="matrix(2.10938,0,0,2.10938,-0.00128,-0.00128)">
        <g id="mountaintop--1-.svg" serif:id="mountaintop (1).svg">
            <g>
                <g>
                    <path d="M253.813,14.47C121.276,14.47 13.625,122.12 13.625,254.656C13.625,387.193 121.275,494.812 253.813,494.812C386.349,494.813 494,387.192 494,254.656C494,122.12 386.35,14.47 253.812,14.47L253.813,14.47ZM253.813,33.156C376.249,33.156 475.313,132.22 475.313,254.656C475.313,272.616 473.18,290.068 469.156,306.781L424.25,298.095L403.72,226.501L402.344,221.657L397.5,220.157L339.437,202.22L272.531,73.594L267.781,64.438L259.126,70.062L168.032,129.312L165.096,131.219L164.126,134.593L116.19,301.97L45.97,331.406C37.15,307.496 32.314,281.653 32.314,254.656C32.314,132.22 131.378,33.156 253.814,33.156L253.813,33.156ZM254.625,95.281L202.095,199.876L218.313,334.314L308.438,272.376L308.438,335.346L284.875,341.596L305.72,470.03C289.074,474.018 271.69,476.125 253.812,476.125C164.999,476.125 88.482,424.008 53.156,348.655L127.562,317.438L131.688,315.718L132.938,311.406L181.125,143.126L254.625,95.281Z" style="fill:rgb(30,60,50);fill-rule:nonzero;"/>
                </g>
            </g>
        </g>
    </g>
</svg>
